<svg xmlns="http://www.w3.org/2000/svg" xml:space="preserve" width="2000" height="559" data-id="lg_MYbEkhRJZc89rHv3s8" data-version="1" viewBox="0 0 2000 559"><g data-padding="20"><g transform="translate(10 12.1)scale(.95671)"><path fill="none" stroke="#444" stroke-width="1.32" d="M1034.796-.18a199.85 199.85 0 1 0 0 399.7 199.85 199.85 0 1 0 0-399.7Z"/><rect width="350.192" height="131.082" x="305.401" y="-157.086" fill="#fff" rx="0" ry="0" transform="translate(400.73 472.43)scale(1.32)"/><rect width="233.916" height="196.62" x="517.298" y="-219.15" fill="none" rx="0" ry="0" transform="translate(399.83 536.59)"/><path fill="#444" d="M966.886 406.05q-8.9 0-15.75-4.1t-10.65-11.2-3.8-15.8q0-9.5 4.55-17.2t12.3-12.1 17.25-4.4q9.1 0 15.9 4t10.5 11.05 3.7 15.85q0 9.9-4.65 17.6t-12.4 12-16.95 4.3m4.4-2.6q7.1 0 12.35-3.35t8.05-9.45 2.8-14.1q0-9.2-3.55-16.7t-9.9-11.85-14.25-4.35q-6.9 0-12.3 3.3t-8.45 9.45-3.05 14.35q0 9.1 3.7 16.6t10.15 11.8 14.45 4.3m52.1 1.5q-2.4 0-5.4-.3v18q0 3.5 1 4.85t3.7 1.35q.7 0 2.7-.2h.1q.3 0 .4.5t-.3.6l-18.4 2.6q-.4.1-.55-.5t.25-.7q2.4-.4 3.45-1.05t1.4-2.05.35-4.7l.1-47.5q-.5.3-4.3 3.4l-.2.1q-.4 0-.7-.4t-.1-.6q1.7-1.6 5.3-4.6v-7.5q0-.2 1.3-1.4t2.3-2.6 1-3.2q0-.4.6-.4t.6.4v10.8q7.4-4.3 14.1-4.3 6.3 0 9.7 3.8t3.4 11.1q0 6.8-2.7 12.4t-7.65 8.85-11.45 3.25m4.7-35.8q-4.9 0-10.1 2.9v28.4q4.3 1.7 8.3 1.7 7.3 0 10.35-4.7t3.05-13.1q0-15.2-11.6-15.2m55.1 30.2h.2q.3 0 .65.3t.15.6q-6.6 5.8-14.7 5.8-5.6 0-9.6-2.6t-6-6.9-2-9.2q0-5.8 2.7-10.95t7.45-8.3 10.75-3.15q4 0 6.25 1.45t2.25 3.95q-.1 4.4-6.8 8.05t-16.5 5.05q.2 8.7 4.05 13.95t10.95 5.25q2.6 0 5.3-.8t4.9-2.5m-14.7-31.7q-5.1 0-7.7 4t-2.8 10.4q16.1-2.7 16.1-10.3 0-2-1.5-3.05t-4.1-1.05m67 29.5.2-.1q.4 0 .75.35t.15.55q-3.1 4-5.45 5.9t-4.95 1.9q-5.7 0-5.5-7.9l.1-17.8q0-11.2-5.9-11.2-3.8 0-6.95 4.1t-5.05 12.1-2 19.1q0 .7-.85 1.1t-2.45.4q-1.5 0-2-.15t-.7-.45q0-.4.15-2.75t.15-4.85l.2-22.3q0-3-.8-4.45t-2.2-1.45q-2.2 0-6.7 4.8-.2.2-.3.2-.4 0-.7-.35t-.1-.65q3-4 5.6-5.95t5.4-1.95 4.05 1.9 1.25 5.8v14.2q1.9-10.5 6.25-16.4t10.55-5.9q4.4 0 6.6 3.15t2.1 10.05l-.1 17.8q0 3 .65 4.4t2.15 1.4q2.3 0 6.4-4.6m-150.37 90.12q.3 0 .3.6t-.3.6q-2.8 0-4.5-.1l-6.6-.1-6.6.1q-1.7.1-4.7.1-.3 0-.3-.6t.3-.6q3.6 0 5.2-.5t2.15-1.9.55-4.5l-.1-23.4h-35.2v23.4q0 3.1.55 4.5t2.2 1.9 5.25.5q.2 0 .2.6t-.2.6q-2.9 0-4.6-.1l-6.9-.1-6.4.1q-1.6.1-4.5.1-.3 0-.35-.6t.35-.6q3.5 0 5.15-.5t2.25-1.95.6-4.45v-46.3q0-3-.55-4.4t-2.2-1.95-5.05-.55q-.3 0-.3-.6t.3-.6l4.4.1q4 .2 6.5.2 2.6 0 6.6-.2l4.8-.1q.2 0 .2.6t-.2.6q-3.6 0-5.25.6t-2.2 2.05-.65 4.45v20.6h35.2v-20.6q.1-3-.45-4.45t-2.2-2.05-5.15-.6q-.3 0-.3-.6t.2-.6l4.8.1q4 .2 6.4.2 2.5 0 6.5-.2l4.7-.1q.3 0 .3.6t-.3.6q-3.5 0-5.15.55t-2.25 1.95-.7 4.4v46.3q.1 3 .7 4.45t2.3 1.95 5.2.5m24.39 2.6q-5.2 0-9.05-2.55t-5.95-6.95-2.1-9.9q0-6.2 2.5-11.2t6.95-7.85 10.15-2.85q7.6 0 12.35 5.05t4.75 13.95q0 6.8-2.7 11.9t-7.2 7.75-9.7 2.65m3-2.5q4.9 0 8.1-4.1t3.2-11.1q0-5.4-1.85-10.3t-5.2-7.9-7.55-3q-4.9 0-8.2 4t-3.3 11q0 5.3 1.9 10.25t5.3 8.05 7.6 3.1m68.8-6.7q.1-.1.3-.1.4 0 .7.35t.2.65q-3.2 4.1-5.6 5.95t-5 1.85q-5.6 0-5.6-7.6v-13.9q-1.9 10.3-6.25 16.1t-10.55 5.8q-9 0-8.6-13.2l.5-17.8q.1-2.9-.7-4.35t-2.2-1.45q-2.1 0-6.3 4.7-.2.2-.4.2-.4 0-.65-.35t-.15-.65q3-4 5.6-5.95t5.3-1.95q5.4 0 5.1 8l-.5 17.7q-.1 5.7 1.45 8.45t4.45 2.75q3.9 0 7.05-4.3t5-12.3 1.85-18.7q0-.7.85-1.1t2.45-.4q2.5 0 2.7.6 0 .4-.1 2.75t-.1 4.85l-.1 22.3q0 3 .65 4.45t2.15 1.45q2.5 0 6.5-4.8m15.2 8.9q-4.4 0-7.8-1.9t-3.4-4.5q0-1.3.85-1.95t2.05-.65q1.1 0 1.9.65t1.8 1.95q1.7 2.1 3.25 3.15t4.25 1.05q2.9 0 4.4-1.5t1.5-4.3q-.1-3.7-2.45-6.2t-6.95-5.4-6.95-5.4-2.35-6.1q0-4.3 3.9-6.95t8.8-2.65q4 0 6.95 1.45t2.95 3.65q0 1.2-.8 1.9t-2 .7q-1.3 0-2.15-.55t-2.15-1.85q-1.5-1.5-2.9-2.3t-3.6-.8-3.45 1-1.25 3.1q0 2.9 2.25 5.25t6.65 5.35q5 3.5 7.5 6.1t2.5 6.3q0 2.8-1.65 5.45t-4.7 4.3-6.95 1.65m52-6.6h.2q.3 0 .65.3t.15.6q-6.6 5.8-14.7 5.8-5.6 0-9.6-2.6t-6-6.9-2-9.2q0-5.8 2.7-10.95t7.45-8.3 10.75-3.15q4 0 6.25 1.45t2.25 3.95q-.1 4.4-6.8 8.05t-16.5 5.05q.2 8.7 4.05 13.95t10.95 5.25q2.6 0 5.3-.8t4.9-2.5m-14.7-31.7q-5.1 0-7.7 4t-2.8 10.4q16.1-2.7 16.1-10.3 0-2-1.5-3.05t-4.1-1.05"/><rect width="394.118" height="20.34" x="437.197" y="-131.01" fill="none" rx="0" ry="0" transform="translate(399.84 669.85)"/><path fill="#444" d="M843.666 549.09q-.33 0-.74-.26t-.41-.67q0-.42.24-.79t.61-.6q.38-.24.88-.39.92-.29 1.97-.29 1.78 0 2.58.78.8.79.8 2.6v2.59q0 .94.23 1.18.06.06.39.16.9.28.9.43 0 .92-1.89.92-.72 0-.93-.31-.22-.32-.23-1.16-.4.72-1.21 1.16t-1.73.44-1.56-.24q-.65-.24-1.05-.77-.39-.53-.39-1.15 0-.61.14-.99.14-.37.35-.63.21-.25.57-.45.37-.2.68-.32.32-.12.82-.22.74-.14 1.24-.2.5-.05.52-.06.05-.01.6-.07.55-.05.87-.23 0-1.67-.45-2.18-.4-.44-1.3-.44-.91 0-1.36.46t-.45 1.46l.01.2q-.37.04-.7.04m4.25 1.25q-.6.22-1.35.3-.75.09-1.18.2-.43.12-.72.28-.67.39-.67 1.33 0 1.51 1.75 1.51 1.53 0 1.93-1.45.24-.82.24-2.17m9.48 4.11q-.15-.08-.22-.21-.06-.13-.06-.33 0-.19.17-.28.18-.09.39-.1.22-.01.4-.14.17-.12.17-.4v-5.65h-.61q-.23 0-.39-.16-.15-.16-.15-.47t.15-.4q.15-.1.55-.1h.45v-1.29q0-1.48.89-2.28.9-.8 2.44-.8 1.27 0 1.83.5.33.28.33.74 0 1.07-1.09 1.07-.94 0-.94-1.07v-.12q-.33-.14-.67-.14-1.51 0-1.51 1.56 0 1.04.39 1.83h1.28q.63 0 .63.37 0 .3-.19.52t-.42.22h-1.3v5.67q0 .51.57.54t.57.45q0 .48-.66.6-.47.08-.93.08h-1.01q-.15 0-.4-.02t-.38-.06q-.13-.05-.28-.13m11.58 0q-.15-.08-.21-.21-.07-.13-.07-.33 0-.19.18-.28.17-.09.39-.1.21-.01.39-.14.17-.12.17-.4v-5.65h-.61q-.23 0-.38-.16-.16-.16-.16-.47t.15-.4q.15-.1.56-.1h.44v-1.29q0-1.48.9-2.28.89-.8 2.43-.8 1.27 0 1.83.5.33.28.33.74 0 1.07-1.08 1.07-.94 0-.94-1.07v-.12q-.34-.14-.68-.14-1.5 0-1.5 1.56 0 1.04.38 1.83h1.28q.63 0 .63.37 0 .3-.19.52t-.42.22h-1.3v5.67q0 .51.57.54t.57.45q0 .48-.65.6-.48.08-.94.08h-1.01q-.14 0-.4-.02-.25-.02-.38-.06-.13-.05-.28-.13m15.21.43q-1.98 0-3.19-1.25-1.22-1.25-1.22-3.18 0-1.28.64-2.28.65-1 1.74-1.53 1.09-.54 2.44-.54 1.93 0 3.19 1.21 1.26 1.2 1.26 3.11 0 1.32-.65 2.34-.65 1.03-1.74 1.57-1.1.55-2.47.55m.36-.97q1.31 0 2.05-.89.73-.89.73-2.36 0-1.48-.84-2.55-.85-1.07-2.17-1.07t-2.03.9q-.71.91-.71 2.37 0 1.47.83 2.54.84 1.06 2.14 1.06m12.66.75-.76.01q-1.15 0-1.42-.35-.12-.16-.12-.38t.17-.31q.18-.09.39-.1.22-.01.39-.14.18-.12.18-.4v-4.35q0-.78-.19-.96-.19-.19-.32-.24-.12-.05-.4-.13-.27-.08-.44-.16t-.17-.24q0-.7 1.89-.7.8 0 1.01.28.22.27.22 1.28.3-.76.99-1.19t1.41-.43q.73 0 1.2.31t.47.79-.31.77q-.31.28-.76.28-.44 0-.76-.24-.32-.23-.42-.61-.23-.04-.38-.04-1.37 0-1.37 3.16v2.42q0 .51.57.54.56.03.56.45 0 .48-.52.6-.41.08-1.11.08m16.7-6.6q-.36-.48-1.05-.77-.69-.28-1.55-.28-.85 0-1.45.49-1.16.96-1.16 2.83 0 1.45.79 2.46.79 1 2.05 1t1.82-.52q.55-.52.55-1.73Zm-2.42-2q.58 0 1.3.19.71.19 1.12.4v-2.95q0-.8-.63-.86-.06-.01-.16-.01-.09-.01-.14-.02-.04 0-.11-.02-.06-.01-.09-.03-.03-.01-.06-.04-.06-.05-.06-.25 0-.21.27-.43.49-.4 1.33-.4.89 0 1.03.1.3.22.3.56v9.61q0 .98.21 1.27.22.28.4.34.17.06.29.11.13.04.18.06.06.03.14.08.14.08.14.24 0 .37-.39.54-.4.18-1.04.18-.65 0-.94-.25t-.51-.91q-.72 1.28-3 1.28-1.83 0-2.98-1.21-1.14-1.22-1.14-3.15t1.27-3.18 3.27-1.25m12.86 3.03q-.33 0-.74-.26t-.41-.67q0-.42.24-.79t.62-.6q.37-.24.87-.39.92-.29 1.97-.29 1.78 0 2.58.78.81.79.81 2.6l-.01 2.59q0 .94.24 1.18.06.06.38.16.9.28.9.43 0 .92-1.89.92-.71 0-.93-.31-.21-.32-.23-1.16-.4.72-1.2 1.16-.81.44-1.74.44-.92 0-1.56-.24t-1.04-.77-.4-1.15q0-.61.14-.99.14-.37.35-.63.21-.25.58-.45.36-.2.68-.32.31-.12.81-.22.74-.14 1.24-.2.5-.05.52-.06.05-.01.6-.07.55-.05.87-.23 0-1.67-.45-2.18-.39-.44-1.3-.44-.9 0-1.36.46-.45.46-.45 1.46l.01.2q-.37.04-.7.04m4.25 1.25q-.6.22-1.35.3-.75.09-1.18.2-.43.12-.72.28-.67.39-.67 1.33 0 1.51 1.76 1.51 1.52 0 1.92-1.45.24-.82.24-2.17m16.24.52q0-.9-.33-1.73-.34-.83-.98-1.38-.65-.56-1.45-.56-1.1 0-2.03.87v4.84q1.05.82 2.25.82t1.87-.79.67-2.07m-6.12 3.87q-.34 0-.34-.79V543.7q0-.8-.63-.86-.06-.01-.16-.01-.1-.01-.14-.02-.05 0-.11-.02-.07-.01-.1-.03-.03-.01-.06-.04-.06-.05-.06-.25 0-.21.28-.43.49-.4 1.32-.4.89 0 1.04.1.3.22.3.56v4.86q1.31-1.12 2.98-1.12t2.68 1.17q1.02 1.16 1.02 3.04 0 1.18-.52 2.23-.51 1.04-1.44 1.69-.92.65-2.03.65-1.58 0-3.07-.99-.02.02-.24.32-.43.58-.72.58m16.52-.07-.75.01q-1.15 0-1.42-.35-.13-.16-.13-.38t.18-.31q.17-.09.38-.1.22-.01.39-.14.18-.12.18-.4v-9.29q0-.8-.64-.86-.06-.01-.15-.01-.1-.01-.14-.02-.05 0-.11-.02-.07-.01-.1-.03-.03-.01-.06-.04-.06-.05-.06-.25 0-.21.27-.43.49-.4 1.33-.4.89 0 1.04.1.3.22.3.56v10.69q0 .51.56.54.57.03.57.45 0 .48-.53.6-.4.08-1.11.08m8.58-.95q-1.22-1.2-1.22-3.18 0-1.97 1.23-3.21 1.22-1.23 3.12-1.23 1.5 0 2.54.97 1.03.97 1.03 2.44 0 .71-1.13.71h-5.09q.02 1.42.93 2.4.9.97 2.28.97.92 0 1.78-.53.46-.28.58-.28.13 0 .29.12.17.13.17.32 0 .48-.62.89t-1.37.6q-.75.2-1.31.2-2 0-3.21-1.19m5.08-4.42q-.02-1.02-.53-1.65t-1.49-.63-1.71.7q-.73.71-.78 1.61h2.06q1.37 0 2.45-.03m24.33 5.37-.76.01q-1.15 0-1.42-.35-.13-.16-.13-.38t.18-.31.39-.1q.22-.01.39-.14.18-.12.18-.4l.01-2.56q0-1.62-.39-2.38-.42-.86-1.76-.86-1.4 0-1.97.88-.51.83-.51 2.4v2.52q0 .51.57.54t.57.45q0 .48-.54.6-.39.08-1.1.08l-.75.01q-1.16 0-1.43-.35-.12-.16-.12-.38t.18-.31q.17-.09.39-.1.21-.01.39-.14.17-.12.17-.4v-9.58q0-.51-.63-.61-.44-.07-.53-.15-.09-.09-.09-.28t.18-.35q.19-.16.48-.24.53-.14 1.18-.14 1.09 0 1.09.66v5.1q1.2-1.35 3.03-1.35 1.82 0 2.54.94.72.93.72 2.83l-.01 3.17q0 .51.56.54.57.03.57.45 0 .48-.53.6-.4.08-1.1.08m11.59.22q-1.99 0-3.2-1.25t-1.21-3.18q0-1.28.64-2.28t1.73-1.53q1.1-.54 2.44-.54 1.94 0 3.19 1.21 1.26 1.2 1.26 3.11 0 1.32-.65 2.34-.64 1.03-1.74 1.57-1.1.55-2.46.55m.36-.97q1.31 0 2.04-.89.74-.89.74-2.36 0-1.48-.85-2.55-.84-1.07-2.17-1.07-1.32 0-2.03.9-.71.91-.71 2.37 0 1.47.83 2.54.84 1.06 2.15 1.06m12.64.75-.75.01q-1.15 0-1.43-.35-.12-.16-.12-.38t.18-.31q.17-.09.39-.1.21-.01.39-.14.17-.12.17-.4v-5.02q0-.27-.19-.4-.2-.13-.43-.15-.63-.03-.63-.39 0-.58 1.16-.79.26-.05.49-.05.76 0 .98.23.22.22.22.99 1.21-1.35 3.28-1.35.72 0 1.4.44.69.43 1.06 1.01 1.5-1.46 3.33-1.46 2.11 0 2.69 1.81.32.99.32 2.66v2.47q0 .51.57.54.56.03.56.45 0 .48-.52.6-.41.08-1.11.08l-.76.01q-1.15 0-1.42-.35-.12-.16-.12-.38t.17-.31q.18-.09.39-.1.22-.01.39-.14.18-.12.18-.4v-2.71q0-2.01-.45-2.56-.42-.53-1.2-.53t-1.36.2q-.58.21-.94.64-.37.44-.37 1.03v3.93q0 .51.56.54.57.03.57.45 0 .48-.53.6-.4.08-1.1.08l-.76.01q-1.15 0-1.42-.35-.13-.16-.13-.38t.18-.31q.17-.09.39-.1.21-.01.39-.14.18-.12.18-.4v-2.62q0-1.66-.29-2.28-.43-.9-1.44-.9-1.27 0-1.94.64-.68.64-.68 1.82v3.34q0 .51.57.54t.57.45q0 .48-.53.6-.4.08-1.11.08m20.47-.95q-1.22-1.2-1.22-3.18 0-1.97 1.23-3.21 1.22-1.23 3.12-1.23 1.5 0 2.54.97 1.03.97 1.03 2.44 0 .71-1.13.71h-5.08q.01 1.42.92 2.4.9.97 2.28.97.92 0 1.78-.53.46-.28.58-.28.13 0 .29.12.17.13.17.32 0 .48-.62.89t-1.37.6q-.75.2-1.31.2-2 0-3.21-1.19m5.08-4.42q-.02-1.02-.53-1.65t-1.49-.63-1.71.7q-.73.71-.78 1.61h2.06q1.37 0 2.45-.03m11.42 4.57q1.97 0 1.97-1.21 0-.91-1.78-1.43-.33-.1-.81-.23-.89-.24-1.19-.36-.78-.3-1.31-.87-.54-.57-.54-1.35 0-1.01.96-1.68.97-.67 2.33-.67 1.33 0 2.49.48.57.24.92.66.36.42.36.88t-.37.73q-.36.27-.75.27t-.52-.07q-.13-.08-.13-.35 0-1.69-1.8-1.69-.75 0-1.3.32-.55.33-.55.86 0 .83 1.72 1.31l.66.17q.38.1.71.2.32.11.68.24.36.14.75.36.4.22.64.47.58.58.58 1.4 0 .83-.56 1.42-1.1 1.17-3.16 1.17-1.35 0-2.48-.44-.58-.22-.93-.63-.35-.4-.35-.86t.29-.71.65-.25q.37 0 .63.23t.26.57-.06.72q.93.34 1.99.34m18.52.59q-.15-.08-.21-.21-.07-.13-.07-.33 0-.19.18-.28.17-.09.39-.1.21-.01.39-.14.17-.12.17-.4v-5.65h-.61q-.23 0-.38-.16-.16-.16-.16-.47t.15-.4q.15-.1.56-.1h.44v-1.29q0-1.48.9-2.28.89-.8 2.43-.8 1.27 0 1.83.5.33.28.33.74 0 1.07-1.08 1.07-.94 0-.94-1.07v-.12q-.34-.14-.68-.14-1.5 0-1.5 1.56 0 1.04.38 1.83h1.28q.63 0 .63.37 0 .3-.19.52t-.42.22h-1.3v5.67q0 .51.57.54t.57.45q0 .48-.65.6-.48.08-.94.08h-1.01q-.14 0-.4-.02-.25-.02-.38-.06-.13-.05-.28-.13m15.2.43q-1.98 0-3.19-1.25-1.22-1.25-1.22-3.18 0-1.28.64-2.28.65-1 1.74-1.53 1.09-.54 2.44-.54 1.93 0 3.19 1.21 1.26 1.2 1.26 3.11 0 1.32-.65 2.34-.65 1.03-1.74 1.57-1.1.55-2.47.55m.37-.97q1.3 0 2.04-.89.73-.89.73-2.36 0-1.48-.84-2.55t-2.17-1.07q-1.32 0-2.03.9-.71.91-.71 2.37 0 1.47.83 2.54.84 1.06 2.15 1.06m12.67.75-.76.01q-1.15 0-1.42-.35-.12-.16-.12-.38t.17-.31q.18-.09.39-.1.22-.01.39-.14.18-.12.18-.4v-4.35q0-.78-.19-.96-.19-.19-.32-.24-.12-.05-.4-.13-.27-.08-.44-.16t-.17-.24q0-.7 1.89-.7.8 0 1.01.28.22.27.22 1.28.3-.76.99-1.19t1.41-.43q.73 0 1.2.31t.47.79-.31.77q-.31.28-.75.28-.45 0-.77-.24-.32-.23-.42-.61-.23-.04-.38-.04-1.37 0-1.37 3.16v2.42q0 .51.57.54.56.03.56.45 0 .48-.52.6-.41.08-1.11.08m19.11-.95q-1.21-1.2-1.21-3.18 0-1.97 1.22-3.21 1.23-1.23 3.13-1.23 1.5 0 2.53.97 1.04.97 1.04 2.44 0 .71-1.13.71h-5.09q.02 1.42.93 2.4.9.97 2.28.97.91 0 1.78-.53.45-.28.58-.28t.29.12q.16.13.16.32 0 .48-.62.89t-1.36.6q-.75.2-1.31.2-2 0-3.22-1.19m5.09-4.42q-.02-1.02-.53-1.65t-1.49-.63-1.71.7q-.74.71-.78 1.61h2.06q1.37 0 2.45-.03m8.6-3.07q2.52 0 2.52.61 0 .25-.56.39t-.56.38q0 .3 2.31 5.32 2.29-5.1 2.29-5.28 0-.17-.18-.27t-.39-.15q-.55-.14-.55-.39 0-.29.63-.45.64-.16 1.19-.16t.98.05q.43.04.82.19.39.14.39.35 0 .38-.56.47-.55.08-.75.2t-.37.49l-2.64 5.66q-.4.89-.5.98l-.18.16q-.16.11-.37.11t-.33-.04q-.12-.05-.19-.1-.06-.04-.14-.18-.08-.13-.1-.19t-.1-.24l-3.02-6.14q-.2-.41-.36-.52t-.72-.19q-.57-.09-.57-.48 0-.27.73-.42.74-.16 1.28-.16m15.12 7.49q-1.22-1.2-1.22-3.18 0-1.97 1.23-3.21 1.23-1.23 3.13-1.23 1.5 0 2.53.97t1.03 2.44q0 .71-1.12.71h-5.09q.02 1.42.92 2.4.91.97 2.29.97.91 0 1.77-.53.46-.28.59-.28t.29.12q.16.13.16.32 0 .48-.62.89t-1.37.6q-.74.2-1.31.2-1.99 0-3.21-1.19m5.09-4.42q-.02-1.02-.53-1.65t-1.49-.63-1.71.7q-.74.71-.78 1.61h2.05q1.38 0 2.46-.03m10.02 5.37-.75.01q-1.15 0-1.43-.35-.12-.16-.12-.38t.18-.31q.17-.09.39-.1.21-.01.39-.14.17-.12.17-.4v-4.35q0-.78-.18-.96-.19-.19-.32-.24t-.4-.13-.44-.16q-.18-.08-.18-.24 0-.7 1.89-.7.8 0 1.02.28.21.27.21 1.28.3-.76.99-1.19t1.42-.43q.72 0 1.19.31t.47.79-.3.77q-.31.28-.76.28t-.77-.24q-.32-.23-.42-.61-.23-.04-.37-.04-1.38 0-1.38 3.16v2.42q0 .51.57.54t.57.45q0 .48-.53.6-.4.08-1.11.08m14.77-1.8q2.22-4.7 2.22-4.96 0-.27-.19-.37-.19-.11-.42-.13-.62-.06-.62-.36 0-.8 1.89-.8h.35q.85 0 1.21.28.37.27.37.51 0 .23-.27.29-.54.09-.81.3t-.52.76q-.26.55-.86 1.89-.59 1.34-1 2.18l-1.89 3.88q-.3.64-.77 1.05-.47.42-1.11.42t-1.12-.32-.48-.82q0-.51.31-.8.3-.3.76-.3.45 0 .82.23.36.23.38.56.7-1.11.94-1.74-.37-1.02-1.68-3.57-1.32-2.55-1.46-2.85-.14-.29-.24-.41-.1-.11-.26-.19t-.26-.11q-.11-.04-.35-.1-.23-.06-.38-.11-.14-.04-.14-.27 0-.76 2.07-.76 1.28 0 1.64.14.69.24.69.65 0 .27-.52.37-.53.1-.53.38 0 .04.31.84 1.01 2.62 1.92 4.24m14.19 2.02q-1.99 0-3.2-1.25t-1.21-3.18q0-1.28.64-2.28t1.74-1.53q1.09-.54 2.43-.54 1.94 0 3.19 1.21 1.26 1.2 1.26 3.11 0 1.32-.64 2.34-.65 1.03-1.75 1.57-1.1.55-2.46.55m.36-.97q1.31 0 2.04-.89.74-.89.74-2.36 0-1.48-.85-2.55-.84-1.07-2.16-1.07-1.33 0-2.04.9-.71.91-.71 2.37 0 1.47.84 2.54.83 1.06 2.14 1.06m12.64.75-.76.01q-1.15 0-1.42-.35-.13-.16-.13-.38t.18-.31.39-.1q.22-.01.39-.14.18-.12.18-.4v-5.02q0-.51-.63-.62-.44-.07-.54-.15-.09-.09-.09-.3 0-.22.31-.39.52-.32 1.3-.32.79 0 1.02.23.22.22.22.99 1.2-1.36 3.31-1.36 1.72 0 2.43.94.72.93.72 2.83v3.17q0 .51.57.54.56.03.56.45 0 .47-.54.6-.41.08-1.12.08l-.75.01q-1.16 0-1.43-.35-.12-.16-.12-.38t.17-.31q.18-.09.4-.1.21-.01.39-.14.17-.12.17-.4v-2.56q0-1.64-.37-2.39-.43-.85-1.7-.85-1.54 0-2.09.81-.52.78-.52 2.47v2.52q0 .51.57.54.56.03.56.45 0 .48-.53.6-.39.08-1.1.08m14.84-.95q-1.22-1.2-1.22-3.18 0-1.97 1.22-3.21 1.23-1.23 3.13-1.23 1.5 0 2.54.97 1.03.97 1.03 2.44 0 .71-1.13.71h-5.09q.02 1.42.93 2.4.9.97 2.28.97.92 0 1.78-.53.45-.28.58-.28t.29.12q.16.13.16.32 0 .48-.62.89-.61.41-1.36.6-.75.2-1.31.2-2 0-3.21-1.19m5.08-4.42q-.02-1.02-.53-1.65t-1.49-.63-1.71.7q-.73.71-.78 1.61h2.06q1.37 0 2.45-.03m-82.27-343.255c0-5.733-4.775-9.617-4.775-9.617s-100.386-92.22-101.743-93.554c-1.31-1.31-4.587-1.31-5.99.047l-43.946 40.482v-35.287H950.34v69.685l-20.24 18.65s-4.775 4.025-4.775 9.617v21.622h17.48l.024 74.318h66.034v-47.034h51.785v47.034h66.034l.07-74.318h17.48Zm-174.893-4.844 62.712-57.774c1.193-1.147 3.978-1.147 5.101-.024.726.726 37.557 34.492 62.946 57.798Z"/></g><path fill="transparent" stroke="transparent" d="M769.182 0h462v559h-462z"/></g></svg>